<svg width="64" height="64" viewBox="0 0 64 64" fill="none" xmlns="http://www.w3.org/2000/svg">
<g clip-path="url(#clip0)">
<path d="M47.618 43.43C47.618 48.673 36.96 52.928 23.81 52.928C10.662 52.928 0 48.673 0 43.43C0 38.18 10.662 33.928 23.81 33.928C36.96 33.928 47.618 38.18 47.618 43.43" fill="#A6A8AB"/>
<path d="M39.822 54.364C52.9708 54.364 63.63 50.1116 63.63 44.866C63.63 39.6204 52.9708 35.368 39.822 35.368C26.6732 35.368 16.014 39.6204 16.014 44.866C16.014 50.1116 26.6732 54.364 39.822 54.364Z" fill="#A6A8AB"/>
<path d="M32.677 51.11C22.607 51.11 13.577 48.914 7.45701 45.44C7.39601 45.909 7.35901 46.383 7.35901 46.864C7.35901 55.934 18.518 63.287 32.282 63.287C46.048 63.287 57.207 55.933 57.207 46.864C57.207 46.518 57.187 46.178 57.152 45.839C51.061 49.08 42.348 51.11 32.675 51.11" fill="#D0D2D3"/>
<path d="M19.867 49.855C15.062 48.869 10.817 47.351 7.45899 45.443C7.39799 45.912 7.36099 46.386 7.36099 46.867C7.36099 55.937 18.52 63.29 32.284 63.29C33.369 63.29 34.435 63.238 35.486 63.15C27.128 60.982 20.98 55.934 19.867 49.855" fill="#B6B6B7"/>
<path d="M60.12 38.938C60.12 45.069 47.656 50.038 32.29 50.038C16.919 50.038 4.45801 45.062 4.45801 38.938C4.45801 32.805 16.919 27.828 32.29 27.828C47.656 27.828 60.12 32.801 60.12 38.938Z" fill="#D0D2D3"/>
<path d="M32.09 48.009C45.2394 48.009 55.899 43.7552 55.899 38.508C55.899 33.2607 45.2394 29.007 32.09 29.007C18.9407 29.007 8.28101 33.2607 8.28101 38.508C8.28101 43.7552 18.9407 48.009 32.09 48.009Z" fill="#A6A8AB"/>
<path d="M13.76 30.949C12.036 32.472 10.229 33.883 8.441 35.329C6.85 36.611 8.882 38.967 10.55 38.058C12.106 37.215 13.65 36.388 15.297 35.734C14.642 34.88 13.984 34.029 13.33 33.175C12.8984 33.8747 12.4147 34.5409 11.883 35.168C10.738 36.61 12.197 39.049 13.992 37.899C15.18 37.141 16.349 36.383 17.588 35.711L15.209 33.334C14.784 34.044 14.452 34.765 14.113 35.522C13.478 36.926 14.919 39.035 16.492 37.901C17.77 36.983 18.979 36.047 20.128 34.969C21.672 33.53 19.72 31.469 18.021 32.238C17.925 32.342 17.835 32.446 17.743 32.551C17.535 33.346 17.326 34.139 17.12 34.93C17.8073 34.4951 18.5654 34.1838 19.36 34.01C21.067 33.516 20.975 31.194 19.36 30.657C19.203 30.604 19.048 30.551 18.892 30.5V33.855C19.668 33.562 20.426 33.39 21.24 33.23C20.791 32.169 20.346 31.107 19.898 30.049C17.077 31.443 8.137 33.675 11.3 38.529C11.798 37.652 12.3 36.783 12.802 35.909C12.487 35.878 12.173 35.847 11.858 35.814C9.92 35.404 8.828 37.908 10.517 38.996C11.107 39.419 11.732 39.786 12.391 40.092C12.685 39.01 12.977 37.93 13.269 36.848C12.538 36.895 11.811 36.946 11.082 37.005C8.83 37.176 8.855 40.279 11.082 40.484C13.381 40.693 16.372 41.318 18.519 40.13C19.202 39.748 19.585 39.412 20.095 38.85C20.454 38.453 20.832 38.078 21.216 37.706C22.96 36.023 20.75 38.2 20.757 36.867L23.376 35.366C23.113 35.21 22.853 35.051 22.592 34.896C22.298 35.976 22.008 37.056 21.712 38.138C22.308 38.373 22.9 38.607 23.493 38.837L24.373 35.595C23.4375 35.486 22.4925 35.486 21.557 35.595C20.23 35.744 19.41 36.955 20.054 38.214C21.197 40.443 23.799 41.306 26.104 41.825C28.289 42.325 29.214 38.97 27.029 38.471C25.667 38.162 23.768 37.832 23.067 36.461C22.563 37.33 22.067 38.203 21.562 39.077C22.4977 38.971 23.4423 38.971 24.378 39.077C26.207 39.281 26.601 36.681 25.256 35.834C24.088 35.102 23.081 34.811 21.716 34.659C19.915 34.457 19.461 37.072 20.84 37.898L21.622 38.369C22.765 39.057 24.231 38.172 24.239 36.866C24.259 34.203 22.35 32.758 19.955 34.269C18.963 34.898 18.14 35.83 17.364 36.693C16.156 38.032 12.686 37.148 11.087 37.004V40.483C11.8157 40.4278 12.5447 40.3771 13.274 40.331C14.891 40.222 15.792 37.94 14.154 37.088C13.4958 36.7826 12.868 36.4156 12.279 35.992C11.83 37.054 11.383 38.112 10.941 39.173C11.5549 39.3061 12.18 39.3801 12.808 39.394C14.086 39.422 15.027 37.874 14.308 36.773C13.871 36.099 20.827 33.466 21.662 33.056C23.528 32.137 22.154 29.513 20.319 29.876C19.51 30.035 18.752 30.211 17.973 30.501C16.369 31.103 16.274 33.289 17.973 33.856C18.132 33.908 18.286 33.961 18.443 34.01V30.657C17.315 30.989 16.354 31.286 15.368 31.925C14.652 32.393 14.147 33.53 14.745 34.306C16.185 36.181 17.69 36.195 19.785 35.243C19.081 34.335 18.377 33.423 17.676 32.512C16.7511 33.37 15.7717 34.1673 14.744 34.899L17.125 37.28C17.466 36.524 17.793 35.801 18.221 35.091C19.142 33.556 17.341 31.896 15.838 32.71C14.599 33.384 13.431 34.144 12.244 34.899L14.349 37.63C15.047 36.748 15.725 35.871 16.344 34.932C17.138 33.727 15.807 31.807 14.377 32.377C12.449 33.147 10.624 34.065 8.801 35.051C9.503 35.965 10.208 36.878 10.912 37.788C12.697 36.346 14.504 34.93 16.227 33.409C17.912 31.923 15.441 29.475 13.765 30.951" fill="#00A551"/>
<path d="M18.452 40.29C19.514 41.464 20.804 41.905 22.344 42.144C22.498 41.005 22.652 39.865 22.808 38.726C22.4784 38.7137 22.1556 38.6283 21.863 38.476C21.706 39.617 21.555 40.756 21.401 41.898C23.539 41.899 27.522 42.138 28.188 39.332C28.985 35.977 26.489 33.242 23.584 32.068L23.119 35.485H23.433C25.482 35.485 25.686 32.714 23.895 32.068C22.856 31.692 21.859 31.339 20.875 30.837C20.581 31.915 20.291 32.997 19.995 34.08C20.969 34.13 24.898 35.123 24.574 36.564C24.387 37.388 24.707 38.051 25.371 38.531C27.542 40.088 29.684 41.877 32.354 42.459C34.33 42.891 35.32 40.398 33.695 39.279C33.3763 39.0616 33.0248 38.8965 32.654 38.79V42.144L33.749 41.831C35.9 41.218 34.982 37.857 32.822 38.477C32.459 38.584 32.093 38.69 31.726 38.79C30.04 39.273 30.101 41.634 31.726 42.144C31.798 42.191 31.869 42.238 31.937 42.285C32.384 41.222 32.833 40.164 33.279 39.103C30.934 38.588 29.035 36.894 27.13 35.527L27.928 37.493C28.9 33.169 23.534 30.788 19.994 30.598C18.287 30.508 17.585 33.062 19.116 33.842C20.366 34.475 21.658 34.947 22.973 35.423C23.126 34.283 23.279 33.145 23.436 32.003H23.122C21.025 32.003 20.929 34.725 22.66 35.423C23.397 35.721 25.995 37.926 24.31 38.337C23.407 38.559 22.327 38.422 21.404 38.416C19.293 38.415 19.227 41.126 20.94 41.831C21.544 42.083 22.165 42.144 22.812 42.207C24.756 42.402 25.207 39.092 23.274 38.79C22.343 38.644 21.603 38.59 20.914 37.833C19.406 36.165 16.951 38.632 18.456 40.29" fill="#00A551"/>
<path d="M52.18 38.982C50.686 39.626 49.188 40.25 47.716 40.943C46.168 41.675 46.899 44.318 48.594 44.187C50.266 44.054 51.871 43.691 53.52 43.406L51.828 40.503C49.731 42.352 45.684 41.951 43.065 41.955C41.139 41.957 40.637 44.975 42.6 45.373C44.397 45.734 46.009 45.702 47.807 45.373C49.466 45.066 49.487 42.303 47.807 42.018C44.496 41.453 41.251 41.762 37.917 41.93C34.341 42.116 30.755 41.492 27.179 41.42C24.902 41.377 24.988 44.691 27.179 44.899C29.164 45.088 31.029 45.141 32.994 44.838C34.657 44.584 34.673 41.719 32.994 41.484C29.331 40.966 23.583 40.034 20.596 42.822C21.298 42.73 22.001 42.642 22.706 42.549C20.987 41.82 19.441 40.956 17.544 40.887C16.321 40.842 15.241 42.44 16.043 43.503C16.398 43.981 16.757 44.454 17.109 44.93C17.905 44.137 18.698 43.346 19.49 42.549C16.905 41.145 14.712 39.539 11.655 39.635C9.96499 39.69 9.22599 42.003 10.777 42.877C16.486 46.102 23.3 47.833 29.857 47.757C32.107 47.729 32.093 44.361 29.857 44.278C28.664 44.229 27.478 44.143 26.284 44.098C24.344 44.022 23.885 47.141 25.824 47.516C31.092 48.536 36.291 48.12 41.561 47.339C43.546 47.043 43.004 43.919 41.1 43.919H39.669V47.398C41.889 47.392 44.403 47.474 46.417 46.365C47.178 45.947 51.301 41.804 51.641 41.988C52.479 42.437 53.531 42.202 54.022 41.363C54.442 40.644 54.895 39.96 55.27 39.218H52.27C52.731 39.748 53.088 40.345 53.34 41.003C54.25 40.3 55.163 39.599 56.073 38.896C54.873 37.419 53.496 36.625 51.738 35.95C50.98 35.66 50.176 36.146 49.771 36.749C49.462 37.129 49.228 37.543 49.056 38C49.968 37.883 50.877 37.764 51.787 37.646C50.539 36.556 49.641 35.234 48.224 34.341C46.797 33.446 44.818 35.275 45.843 36.72C46.215 37.246 46.562 37.677 47.009 38.144C47.572 37.177 48.136 36.206 48.702 35.238C47.024 34.871 45.501 34.343 43.774 34.285C42.67 34.244 41.764 35.43 42.096 36.484C42.286 37.156 42.524 37.812 42.809 38.45L44.026 36.306C43.589 36.468 43.266 36.644 42.904 36.933C42.292 37.422 42.284 38.413 42.63 39.04C42.904 39.499 43.142 39.976 43.344 40.47C43.998 39.616 44.657 38.765 45.308 37.913C43.329 37.571 41.937 35.433 40.488 34.169C39.079 32.944 37.566 32.373 35.747 32.139C33.747 31.885 33.466 35.03 35.285 35.556C37.676 36.248 40.049 36.478 42.53 36.511C44.8 36.544 44.736 33.2 42.53 33.031C38.986 32.761 38.269 34.863 36.124 37.111L39.093 38.341C38.953 37.009 41.67 36.25 42.559 35.941C44.766 35.162 46.553 35.527 48.609 36.631C50.588 37.691 52.343 34.687 50.366 33.621C47.109 31.873 44.37 31.611 40.905 32.834C38.533 33.669 35.301 35.373 35.615 38.335C35.765 39.748 37.443 40.76 38.584 39.564C39.882 38.206 40.348 36.337 42.531 36.503V33.023C40.361 32.995 38.302 32.8 36.211 32.195L35.748 35.613C39.35 36.073 40.738 40.633 44.389 41.261C45.953 41.529 47.012 40.146 46.354 38.702C46.1539 38.2091 45.9155 37.7327 45.641 37.277C45.548 37.977 45.458 38.68 45.369 39.383C45.229 39.473 45.095 39.563 44.96 39.652C45.767 39.358 46.549 38.443 46.173 37.512C45.8838 36.8768 45.6454 36.2198 45.46 35.547C44.899 36.279 44.342 37.016 43.78 37.749C45.166 37.799 46.444 38.288 47.778 38.578C49.466 38.948 50.714 36.969 49.471 35.672C49.264 35.436 49.059 35.194 48.854 34.952C48.057 35.746 47.266 36.54 46.471 37.334C47.598 38.039 48.337 39.227 49.33 40.096C50.103 40.77 51.56 40.826 52.06 39.744C52.232 39.29 52.47 38.872 52.777 38.494C52.123 38.764 51.466 39.027 50.812 39.297C52.041 39.766 52.795 40.34 53.614 41.344C54.931 42.967 57.159 40.904 56.344 39.236C56.0941 38.5835 55.7316 37.98 55.273 37.453C54.562 36.477 52.919 36.184 52.273 37.453C51.894 38.194 51.447 38.88 51.025 39.599C51.816 39.388 52.613 39.183 53.406 38.974C51.46 37.927 49.912 38.333 48.376 39.866C47.302 40.931 46.66 42.062 45.384 42.963C43.772 44.096 41.55 43.907 39.682 43.911C37.44 43.915 37.44 47.39 39.682 47.39H41.112L40.649 43.974C36.028 44.658 31.384 45.042 26.763 44.15C26.606 45.288 26.453 46.429 26.296 47.566C27.49 47.615 28.675 47.701 29.869 47.749V44.27C23.923 44.336 17.724 42.79 12.542 39.866C12.252 40.95 11.958 42.029 11.666 43.108C14.036 43.035 15.768 44.471 17.747 45.549C19.154 46.313 21.24 44.653 20.126 43.167C19.771 42.689 19.415 42.215 19.056 41.737C18.554 42.611 18.056 43.484 17.555 44.355C18.792 44.4 19.852 45.076 20.959 45.546C21.711 45.865 22.435 45.861 23.066 45.275C24.836 43.625 29.9 44.525 32.086 44.83V41.476C30.448 41.722 28.833 41.566 27.194 41.412V44.891C30.414 44.954 33.611 45.367 36.833 45.426C40.208 45.49 43.528 44.789 46.893 45.365V42.01C45.7909 42.285 44.6381 42.285 43.536 42.01L43.075 45.426C46.797 45.422 51.336 45.569 54.297 42.953C55.734 41.693 54.163 39.78 52.607 40.047C51.271 40.272 49.963 40.592 48.607 40.699C48.898 41.781 49.193 42.857 49.486 43.939C50.955 43.249 52.455 42.621 53.947 41.98C56 41.093 54.224 38.097 52.191 38.98" fill="#F6921E"/>
<path d="M30.2 48.08C32.395 48.19 34.588 48.19 36.783 48.08C38.637 47.983 39.278 44.944 37.247 44.661C34.731 44.311 32.248 44.463 29.722 44.477C29.875 45.619 30.032 46.754 30.185 47.895C31.996 47.63 33.705 47.405 35.388 46.643C37.431 45.715 35.659 42.721 33.632 43.643C32.282 44.253 30.708 44.333 29.259 44.543C27.28 44.835 27.807 47.975 29.721 47.964C31.91 47.945 34.146 47.716 36.324 48.018C36.476 46.879 36.63 45.741 36.784 44.6C34.5911 44.713 32.3939 44.713 30.201 44.6C27.956 44.487 27.968 47.97 30.201 48.084" fill="#A87C4F"/>
<path d="M46.49 37.959C43.652 38.809 40.815 39.318 37.854 39.452C35.993 39.536 35.368 42.596 37.391 42.87C37.9398 42.951 38.4957 42.9718 39.049 42.932C40.895 42.807 41.561 39.844 39.516 39.518C39.3842 39.4951 39.2522 39.4734 39.12 39.453C39.524 39.856 39.933 40.263 40.335 40.671C40.289 41.306 40.304 41.312 40.371 40.689C40.3424 40.4232 40.303 40.1586 40.253 39.896C39.865 37.687 36.517 38.625 36.898 40.818C36.747 39.951 36.912 41.415 36.982 41.595C37.288 42.368 37.773 42.74 38.59 42.871C38.744 41.731 38.9 40.593 39.05 39.453C38.8054 39.4664 38.5612 39.4881 38.318 39.518C38.166 40.655 38.011 41.794 37.855 42.932C41.0968 42.7888 44.3082 42.2443 47.416 41.311C49.56 40.674 48.643 37.314 46.49 37.959" fill="#A87C4F"/>
<path d="M30.08 32.521C32.957 32.513 35.829 32.427 38.7 32.64C38.545 31.501 38.392 30.36 38.236 29.223C37.133 29.488 35.999 29.436 34.868 29.521C32.95 29.662 32.455 32.367 34.408 32.938C35.402 33.231 36.505 33.315 37.465 33.719C37.602 32.659 37.736 31.598 37.879 30.54C35.909 31.269 33.926 31.928 31.895 32.455C30.668 32.773 30.151 34.482 31.127 35.363C31.562 35.756 31.942 36.144 32.437 36.472V33.472C32.197 33.63 31.958 33.79 31.719 33.951C30.851 34.529 30.465 35.915 31.366 36.685C31.882 37.127 32.315 37.579 32.914 37.914L33.33 34.73C32.892 34.918 32.554 35.094 32.203 35.419C31.431 36.127 31.548 37.69 32.554 38.151C32.938 38.325 33.282 38.477 33.692 38.563C35.88 39.018 36.811 35.666 34.618 35.21C34.514 35.188 34.414 35.166 34.313 35.147L34.664 37.877C34.53 37.947 34.393 38.018 34.257 38.087C35.552 37.545 36.125 35.713 34.672 34.904C34.34 34.718 34.116 34.466 33.828 34.218C33.708 35.129 33.597 36.039 33.475 36.948C33.716 36.793 33.954 36.633 34.194 36.471C35.309 35.729 35.315 34.208 34.194 33.461C33.9988 33.2666 33.7973 33.0785 33.59 32.897C33.331 33.866 33.076 34.835 32.819 35.805C34.85 35.28 36.839 34.617 38.803 33.887C40.026 33.438 40.759 31.359 39.219 30.71C37.95 30.173 36.645 29.961 35.332 29.575C35.179 30.716 35.021 31.856 34.867 32.993C36.316 32.889 37.742 32.915 39.163 32.572C41.163 32.092 40.576 29.293 38.699 29.155C35.828 28.942 32.956 29.026 30.079 29.034C27.837 29.048 27.837 32.525 30.079 32.521" fill="#A87C4F"/>
<path d="M42.664 32.936C45.413 33.807 47.998 35.055 50.507 36.473C50.952 35.413 51.399 34.352 51.846 33.293C51.137 33.098 50.44 33.064 49.709 32.99C48.932 32.908 48.245 33.585 48.03 34.265C48.347 33.244 49.541 33.286 48.712 33.31C48.268 33.311 47.82 33.265 47.383 33.226C46.602 33.152 45.825 33.017 45.041 32.99C43.498 32.935 42.771 34.914 43.811 35.96C44.617 36.773 45.477 37.012 46.595 37.066C48.842 37.185 48.829 33.706 46.595 33.587C46.491 33.556 46.38 33.528 46.274 33.498C45.862 34.487 45.455 35.477 45.043 36.47C46.95 36.533 50.587 37.759 51.387 35.191C50.828 35.619 50.271 36.044 49.711 36.47C50.119 36.493 50.524 36.554 50.925 36.646C52.824 37.169 53.995 34.445 52.263 33.465C49.501 31.903 46.62 30.537 43.591 29.579C41.439 28.903 40.529 32.266 42.664 32.936" fill="#A87C4F"/>
<path d="M52.43 39.36C52.051 39.789 51.655 40.19 51.217 40.557C51.324 40.483 51.291 40.506 51.12 40.631C51.017 40.704 50.913 40.772 50.808 40.842C50.7003 40.9084 50.5909 40.9721 50.48 41.033C50.509 41.013 49.959 41.29 50.207 41.185C49.333 41.55 48.718 42.322 48.99 43.326C49.218 44.15 50.255 44.909 51.131 44.541C52.61 43.922 53.827 43.02 54.895 41.82C55.524 41.111 55.591 40.058 54.895 39.359C54.25 38.722 53.059 38.651 52.43 39.359" fill="#A87C4F"/>
<path d="M15.959 43.529C16.88 43.53 17.793 43.654 18.709 43.771C19.653 43.888 20.447 42.888 20.447 42.031C20.447 40.99 19.649 40.409 18.709 40.289C17.793 40.176 16.88 40.059 15.959 40.05C15.006 40.042 14.217 40.85 14.217 41.793C14.217 42.747 15.006 43.521 15.959 43.529Z" fill="#A87C4F"/>
<path d="M23.347 5.28301C18.056 7.72901 15.847 12.19 18.327 17.156C19.807 20.119 22.16 22.671 24.074 25.415C26.516 28.923 26.469 32.132 24.529 35.838C23.773 37.277 26.187 38.538 26.947 37.09C29.689 31.863 29.109 27.746 25.65 22.97C21.934 17.837 16.152 11.403 24.762 7.42501C26.367 6.68301 24.948 4.54101 23.348 5.28001" fill="#E6E7E8"/>
<path d="M32.525 39.984C35.015 37.201 35.585 34.386 34.314 31.008C32.922 27.312 30.174 24.307 30.129 20.255C30.09 16.9 31.967 13.631 33.273 10.558C34.613 7.401 35.283 4.242 34.564 0.896005C34.23 -0.672995 31.534 -0.00899518 31.861 1.555C33.146 7.58501 28.39 12.824 27.473 18.615C27.048 21.312 27.628 23.95 28.876 26.419C30.838 30.296 34.101 34.251 30.541 38.23C29.433 39.471 31.402 41.23 32.525 39.982" fill="#E6E7E8"/>
<path d="M41.16 36.13C41.127 33.405 40.722 30.915 39.722 28.336C39.252 27.132 38.451 26.076 38.015 24.855C37.577 23.632 38.448 22.184 39.079 21.165C41.198 17.751 43.431 15.074 41.154 11.189C40.317 9.767 37.901 11.022 38.727 12.438C40.951 16.227 36.278 19.295 35.309 22.839C34.807 24.665 35.532 26.299 36.428 27.918C37.876 30.548 38.317 33.228 38.35 36.13C38.376 37.729 41.18 37.729 41.16 36.13Z" fill="#E6E7E8"/>
</g>
<defs>
<clipPath id="clip0">
<rect width="64" height="64" fill="white"/>
</clipPath>
</defs>
</svg>
